IKResults
version=1
nRows=5
nColumns=42
inDegrees=yes

Units are S.I. units (second, meters, Newtons, ...)
Angles are in degrees.

endheader
time	pelvis_tilt	pelvis_list	pelvis_rotation	pelvis_tx	pelvis_ty	pelvis_tz	hip_flexion_r	hip_adduction_r	hip_rotation_r	knee_angle_r	knee_adduction_r	knee_angle_r_beta	ankle_angle_r	subtalar_angle_r	mtp_angle_r	hip_flexion_l	hip_adduction_l	hip_rotation_l	knee_angle_l	knee_adduction_l	knee_angle_l_beta	ankle_angle_l	subtalar_angle_l	mtp_angle_l	lumbar_extension	lumbar_bending	lumbar_rotation	arm_flex_r	arm_add_r	arm_rot_r	elbow_flex_r	pro_sup_r	wrist_flex_r	wrist_dev_r	arm_flex_l	arm_add_l	arm_rot_l	elbow_flex_l	pro_sup_l	wrist_flex_l	wrist_dev_l
      2.17833588	    -31.01536283	     -3.80808442	     34.75762573	      0.95087536	      0.94736189	      0.01654219	     33.00012500	    -20.50480991	    -12.73063291	      7.05759111	      6.47602164	      0.12317820	      4.74082897	     -9.29443402	      9.95630794	     -8.53443274	    -13.29792782	    -14.64702044	     30.14728890	      5.09547410	      0.52616945	      5.62175720	     -6.79226136	      3.60524378	     -5.51382506	     -7.09128194	    -10.85412107	    -34.47611130	    -18.40958400	      2.85044637	     99.16321588	     86.39708852	      0.00000000	      0.00000000	     11.05006046	    -26.54797693	     16.55053135	     77.73337054	     87.71901777	      0.00000000	      0.00000000
      2.18499746	    -30.96323807	     -3.81547265	     34.73253743	      0.95094073	      0.94739804	      0.01662538	     32.96285253	    -20.45116740	    -12.73925371	      7.06144957	      6.47602164	      0.12324554	      4.75168852	     -9.29166670	      9.96160355	     -8.31938353	    -13.21766859	    -14.64119295	     30.03363021	      5.09547410	      0.52418573	      5.66715248	     -6.76750907	      3.59637457	     -5.60618342	     -7.04364040	    -10.82475092	    -34.47049715	    -18.41819261	      2.86499129	     99.16110915	     86.41334696	      0.00000000	      0.00000000	     11.07369026	    -26.57092682	     16.55922996	     77.73281699	     87.73076662	      0.00000000	      0.00000000
      2.19165903	    -30.90652178	     -3.82779193	     34.70289991	      0.95104033	      0.94742850	      0.01670287	     32.92158901	    -20.38736923	    -12.74843109	      7.06554450	      6.47602164	      0.12331701	      4.76183605	     -9.28890564	      9.96763146	     -8.09889750	    -13.13263939	    -14.61563539	     29.89587697	      5.09547410	      0.52178149	      5.71911258	     -6.73973015	      3.58624761	     -5.69012797	     -6.99162276	    -10.78927515	    -34.46561392	    -18.42423336	      2.87979847	     99.15978064	     86.43163894	      0.00000000	      0.00000000	     11.09127219	    -26.59390707	     16.57246222	     77.73646498	     87.74369657	      0.00000000	      0.00000000
      2.19832061	    -30.84469109	     -3.84016716	     34.66643324	      0.95118157	      0.94745374	      0.01678085	     32.87437735	    -20.31661658	    -12.75862845	      7.06930043	      6.47602164	      0.12338257	      4.77166863	     -9.28610502	      9.97415148	     -7.87466609	    -13.04233900	    -14.57479712	     29.74055200	      5.09547410	      0.51907055	      5.77353666	     -6.70984468	      3.57564011	     -5.76522700	     -6.93738577	    -10.74895522	    -34.46241024	    -18.42902500	      2.89312453	     99.15778006	     86.45128959	      0.00000000	      0.00000000	     11.09848360	    -26.61613505	     16.58935915	     77.74215797	     87.75561259	      0.00000000	      0.00000000
      2.20498219	    -30.79387006	     -3.86098111	     34.63656685	      0.95154487	      0.94739062	      0.01650149	     32.78799337	    -20.26483193	    -12.82440162	      7.03394191	      6.47602164	      0.12276545	      4.78450660	     -9.28014028	     10.04201945	     -7.73769836	    -12.88988247	    -14.43692826	     29.36535217	      5.09547410	      0.51252208	      5.87320152	     -6.62161164	      3.55150078	     -5.72640509	     -6.87868134	    -10.68338444	    -34.53276776	    -18.44498700	      2.91379455	     99.08338143	     86.57399469	      0.00000000	      0.00000000	     11.01150688	    -26.62090867	     16.72456770	     77.75725921	     87.77923331	      0.00000000	      0.00000000
